<svg xmlns="http://www.w3.org/2000/svg" viewBox="0 0 64 64" width="64" height="64" role="img" aria-label="pg_durable logo">
  <defs>
    <linearGradient id="pgGrad" x1="8" y1="6" x2="54" y2="60" gradientUnits="userSpaceOnUse">
      <stop offset="0" stop-color="#86cdf2"/>
      <stop offset="0.45" stop-color="#5a96e8"/>
      <stop offset="1" stop-color="#8a5cf0"/>
    </linearGradient>
  </defs>

  <!-- Hexagon shell -->
  <path d="M32 3 L57.12 17.5 L57.12 46.5 L32 61 L6.88 46.5 L6.88 17.5 Z"
        fill="#0d1426" stroke="url(#pgGrad)" stroke-width="3" stroke-linejoin="round"/>

  <!-- Gear (gradient) -->
  <g fill="url(#pgGrad)">
    <g>
      <rect x="28.5" y="8.6" width="7" height="10" rx="1.5"/>
      <rect x="28.5" y="8.6" width="7" height="10" rx="1.5" transform="rotate(45 32 32)"/>
      <rect x="28.5" y="8.6" width="7" height="10" rx="1.5" transform="rotate(90 32 32)"/>
      <rect x="28.5" y="8.6" width="7" height="10" rx="1.5" transform="rotate(135 32 32)"/>
      <rect x="28.5" y="8.6" width="7" height="10" rx="1.5" transform="rotate(180 32 32)"/>
      <rect x="28.5" y="8.6" width="7" height="10" rx="1.5" transform="rotate(225 32 32)"/>
      <rect x="28.5" y="8.6" width="7" height="10" rx="1.5" transform="rotate(270 32 32)"/>
      <rect x="28.5" y="8.6" width="7" height="10" rx="1.5" transform="rotate(315 32 32)"/>
    </g>
    <!-- Gear body -->
    <circle cx="32" cy="32" r="15.2"/>
  </g>

  <!-- White hub -->
  <circle cx="32" cy="32" r="9.6" fill="#ffffff"/>

  <!-- Tilde + arrow glyph -->
  <g fill="none" stroke="#0e1730" stroke-width="2.7" stroke-linecap="round" stroke-linejoin="round">
    <path d="M24.4 32.8 C 25.8 30.4, 27.5 30.3, 29.1 32.4 C 30.4 34.1, 31.8 34.2, 33.1 32.6"/>
  </g>
  <path d="M33.6 28.8 L40.2 32 L33.6 35.2 L33.6 33.5 L31.5 33.5 L31.5 30.5 L33.6 30.5 Z" fill="#0e1730"/>
</svg>
